<svg width="192" height="64" viewBox="0 0 192 64" fill="none" xmlns="http://www.w3.org/2000/svg">
<path d="M85.5352 59.2874H81.1035V50.175H85.527V51.1257H82.0263V54.0586H85.3159V55.0093H82.0263V58.3653H85.527L85.5352 59.2874Z" fill="#231F20"/>
<path d="M88.5892 55.7888L86.5202 52.4613H87.5464L89.1147 55.0758L90.6747 52.4613H91.6926L89.6237 55.7888L91.8002 59.2874H90.7781L89.123 56.5208L87.4388 59.2874H86.4209L88.5892 55.7888Z" fill="#231F20"/>
<path d="M95.3584 59.411C94.9874 59.4364 94.6161 59.3678 94.2707 59.2101C93.9254 59.0524 93.6144 58.8094 93.3598 58.4984C92.852 57.7729 92.5981 56.8559 92.6481 55.9267C92.5946 54.9722 92.8511 54.0288 93.3681 53.279C93.6298 52.9539 93.9513 52.7 94.3092 52.5355C94.6671 52.371 95.0524 52.3003 95.437 52.3283C95.7251 52.3294 96.0123 52.3661 96.2936 52.4376C96.5264 52.488 96.7529 52.5711 96.9681 52.6848L96.6908 53.5642C96.4797 53.4692 96.2625 53.393 96.0412 53.3361C95.8361 53.2817 95.6267 53.2514 95.4163 53.2457C94.2081 53.2457 93.6039 54.1315 93.6039 55.903C93.5665 56.5843 93.7218 57.2612 94.0467 57.8329C94.2008 58.0598 94.4009 58.24 94.6295 58.3576C94.8582 58.4753 95.1084 58.5269 95.3584 58.5079C95.8818 58.4999 96.3989 58.3756 96.8812 58.1419V59.0545C96.4063 59.3137 95.8837 59.4361 95.3584 59.411Z" fill="#231F20"/>
<path d="M100.784 59.4111C100.402 59.4314 100.021 59.3599 99.6645 59.2011C99.3082 59.0423 98.9847 58.7997 98.7148 58.489C98.1776 57.7831 97.9041 56.8626 97.9534 55.9268C97.9088 54.9831 98.1598 54.0523 98.661 53.3029C98.8942 52.9881 99.1869 52.7388 99.5168 52.5741C99.8467 52.4093 100.205 52.3334 100.564 52.3522C100.895 52.335 101.225 52.402 101.53 52.5483C101.836 52.6945 102.109 52.9165 102.331 53.1983C102.785 53.8212 103.018 54.6167 102.985 55.4277V56.0837H98.8969C98.8735 56.7452 99.0602 57.394 99.4224 57.909C99.6063 58.1222 99.8276 58.288 100.072 58.3954C100.316 58.5027 100.577 58.5492 100.838 58.5317C101.492 58.525 102.139 58.3631 102.737 58.0564V58.9786C102.447 59.1254 102.145 59.2385 101.835 59.3161C101.488 59.3908 101.136 59.4227 100.784 59.4111ZM100.552 53.1983C100.34 53.1873 100.127 53.2292 99.9304 53.3211C99.7333 53.413 99.5558 53.5527 99.41 53.7307C99.1045 54.1494 98.9285 54.6727 98.9093 55.2185H102.017C102.05 54.6817 101.915 54.149 101.636 53.7164C101.502 53.5404 101.335 53.4021 101.147 53.3123C100.959 53.2224 100.755 53.1834 100.552 53.1983Z" fill="#231F20"/>
<path d="M105.406 59.2873H104.508V49.5854H105.406V59.2873Z" fill="#231F20"/>
<path d="M108.219 59.2873H107.317V49.5854H108.219V59.2873Z" fill="#231F20"/>
<path d="M112.642 59.411C112.26 59.4322 111.878 59.3611 111.522 59.2022C111.166 59.0434 110.842 58.8003 110.573 58.4888C110.034 57.7838 109.759 56.8632 109.807 55.9267C109.762 54.9822 110.015 54.0506 110.519 53.3028C110.751 52.9884 111.043 52.7393 111.373 52.5745C111.702 52.4097 112.059 52.3337 112.418 52.3521C112.749 52.3349 113.08 52.4018 113.386 52.548C113.692 52.6943 113.966 52.9163 114.189 53.1982C114.641 53.8218 114.873 54.6172 114.839 55.4276V56.0836H110.742C110.718 56.746 110.907 57.3956 111.272 57.9089C111.455 58.1217 111.676 58.2873 111.919 58.3947C112.162 58.5021 112.423 58.5487 112.683 58.5316C113.338 58.5249 113.984 58.363 114.582 58.0563V58.9785C114.292 59.126 113.99 59.239 113.68 59.316C113.338 59.39 112.99 59.4219 112.642 59.411ZM112.398 53.1982C112.185 53.1863 111.973 53.2277 111.775 53.3197C111.578 53.4116 111.401 53.5518 111.255 53.7306C110.949 54.1489 110.771 54.6721 110.751 55.2184H113.862C113.894 54.6818 113.759 54.1498 113.482 53.7163C113.347 53.5408 113.18 53.4029 112.992 53.3132C112.804 53.2234 112.601 53.184 112.398 53.1982Z" fill="#231F20"/>
<path d="M120.435 59.2874V54.8666C120.464 54.4185 120.346 53.974 120.103 53.6212C119.965 53.4727 119.801 53.3591 119.622 53.2878C119.443 53.2166 119.254 53.1893 119.065 53.2077C118.814 53.1832 118.562 53.2225 118.326 53.3227C118.09 53.4229 117.876 53.5817 117.699 53.7876C117.369 54.3453 117.215 55.0167 117.265 55.689V59.2732H116.363V52.4566H117.103L117.252 53.4073H117.294C117.483 53.0672 117.753 52.7966 118.072 52.6277C118.418 52.4381 118.797 52.3421 119.181 52.3473C119.768 52.2953 120.349 52.5104 120.799 52.9462C120.997 53.2037 121.148 53.5053 121.241 53.8323C121.335 54.1594 121.368 54.505 121.341 54.8476V59.3064L120.435 59.2874Z" fill="#231F20"/>
<path d="M125.562 59.411C125.191 59.4364 124.819 59.3678 124.474 59.2101C124.129 59.0524 123.818 58.8094 123.563 58.4983C123.058 57.7714 122.806 56.855 122.855 55.9267C122.803 54.9731 123.058 54.0305 123.571 53.279C123.831 52.9571 124.149 52.705 124.503 52.5407C124.857 52.3763 125.238 52.3038 125.62 52.3283C125.909 52.3294 126.198 52.3661 126.48 52.4376C126.712 52.4877 126.937 52.5708 127.151 52.6848L126.873 53.5642C126.662 53.4692 126.445 53.3929 126.224 53.336C126.019 53.2816 125.809 53.2514 125.599 53.2457C124.391 53.2457 123.786 54.1314 123.786 55.9029C123.749 56.5842 123.904 57.2612 124.229 57.8328C124.383 58.0598 124.583 58.2399 124.812 58.3576C125.041 58.4753 125.291 58.5268 125.541 58.5078C126.064 58.4999 126.581 58.3756 127.064 58.1418V59.0545C126.595 59.3099 126.08 59.4322 125.562 59.411Z" fill="#231F20"/>
<path d="M130.985 59.4111C130.603 59.4314 130.222 59.3598 129.866 59.201C129.51 59.0422 129.186 58.7997 128.916 58.4889C128.38 57.782 128.107 56.8623 128.155 55.9267C128.11 54.9831 128.361 54.0522 128.862 53.3028C129.096 52.9883 129.388 52.7392 129.718 52.5745C130.048 52.4097 130.406 52.3337 130.766 52.3521C131.096 52.3346 131.426 52.4014 131.732 52.5477C132.037 52.694 132.311 52.9161 132.533 53.1982C132.986 53.8211 133.219 54.6166 133.186 55.4276V56.0836H129.09C129.066 56.7461 129.254 57.3956 129.62 57.9089C129.802 58.1225 130.023 58.2886 130.266 58.396C130.51 58.5034 130.77 58.5497 131.031 58.5317C131.685 58.5249 132.332 58.3631 132.93 58.0563V58.9785C132.64 59.1253 132.338 59.2384 132.028 59.316C131.684 59.39 131.335 59.4219 130.985 59.4111ZM130.757 53.1982C130.545 53.1873 130.333 53.2292 130.136 53.321C129.939 53.4129 129.761 53.5526 129.615 53.7306C129.312 54.1506 129.136 54.6731 129.115 55.2185H132.222C132.255 54.6824 132.121 54.1505 131.846 53.7163C131.71 53.5408 131.542 53.4029 131.354 53.3131C131.165 53.2233 130.961 53.184 130.757 53.1982Z" fill="#231F20"/>
<path d="M138.653 55.4988V59.3016H137.73V50.1748H139.907C140.669 50.1074 141.429 50.3332 142.067 50.8166C142.306 51.0537 142.493 51.3517 142.614 51.6868C142.735 52.0219 142.785 52.3848 142.762 52.7465C142.762 53.9539 142.231 54.7683 141.169 55.1898L143.321 59.2873H142.233L140.308 55.4845L138.653 55.4988ZM138.653 54.5861H139.919C140.428 54.6352 140.935 54.477 141.351 54.1393C141.51 53.9706 141.633 53.7628 141.712 53.5314C141.791 53.3001 141.823 53.0512 141.806 52.8035C141.826 52.5596 141.795 52.3136 141.714 52.0868C141.633 51.86 141.506 51.659 141.343 51.5011C140.894 51.1936 140.374 51.054 139.853 51.1018H138.653V54.5861Z" fill="#231F20"/>
<path d="M146.98 59.4111C146.598 59.4314 146.217 59.3599 145.86 59.2011C145.504 59.0423 145.181 58.7997 144.911 58.489C144.373 57.7831 144.1 56.8626 144.149 55.9268C144.105 54.9831 144.356 54.0523 144.857 53.3029C145.09 52.9881 145.383 52.7388 145.713 52.5741C146.043 52.4093 146.401 52.3334 146.76 52.3522C147.091 52.335 147.421 52.402 147.726 52.5483C148.032 52.6945 148.305 52.9165 148.527 53.1983C148.98 53.8212 149.214 54.6167 149.181 55.4277V56.0837H145.08C145.058 56.7458 145.246 57.3946 145.61 57.909C145.794 58.1222 146.015 58.288 146.259 58.3954C146.503 58.5027 146.764 58.5492 147.025 58.5317C147.68 58.525 148.326 58.3631 148.924 58.0564V58.9786C148.634 59.1254 148.332 59.2385 148.022 59.3161C147.679 59.3901 147.329 59.422 146.98 59.4111ZM146.735 53.1983C146.523 53.1873 146.311 53.2292 146.114 53.3211C145.917 53.413 145.739 53.5527 145.593 53.7307C145.288 54.1494 145.112 54.6727 145.093 55.2185H148.2C148.231 54.6819 148.097 54.1499 147.82 53.7164C147.686 53.5404 147.518 53.4021 147.33 53.3123C147.142 53.2224 146.939 53.1834 146.735 53.1983Z" fill="#231F20"/>
<path d="M154.759 58.3701H154.709C154.502 58.7132 154.222 58.9892 153.895 59.1716C153.568 59.3539 153.206 59.4364 152.843 59.4111C152.5 59.43 152.158 59.3569 151.845 59.1976C151.531 59.0384 151.253 58.7974 151.035 58.4937C150.565 57.7365 150.337 56.8165 150.389 55.8887C150.337 54.9551 150.565 54.0292 151.035 53.2648C151.25 52.9532 151.526 52.7046 151.841 52.5394C152.156 52.3741 152.501 52.2969 152.847 52.3141C153.206 52.2926 153.563 52.3739 153.887 52.5507C154.212 52.7274 154.493 52.9941 154.705 53.3266H154.759L154.717 52.8513L154.697 52.3759V49.5951H155.586V59.297H154.854L154.759 58.3701ZM152.959 58.546C153.205 58.5707 153.453 58.5319 153.684 58.4324C153.915 58.3329 154.124 58.1751 154.295 57.9708C154.612 57.421 154.758 56.7644 154.709 56.1074V55.8887C154.765 55.1651 154.62 54.4398 154.295 53.8162C154.129 53.5988 153.921 53.4294 153.687 53.3221C153.454 53.2147 153.201 53.1722 152.951 53.1983C152.712 53.1848 152.475 53.2431 152.262 53.3673C152.05 53.4915 151.869 53.6774 151.738 53.9065C151.43 54.5095 151.285 55.205 151.324 55.903C151.283 56.5952 151.428 57.2853 151.738 57.8805C151.877 58.0975 152.06 58.2718 152.272 58.3879C152.483 58.504 152.716 58.5583 152.951 58.546H152.959Z" fill="#231F20"/>
<path d="M160.026 59.411C159.645 59.4319 159.263 59.3607 158.907 59.2018C158.551 59.043 158.227 58.8001 157.957 58.4888C157.419 57.7838 157.144 56.8632 157.192 55.9267C157.147 54.9822 157.399 54.0506 157.904 53.3028C158.136 52.9884 158.428 52.7393 158.757 52.5745C159.087 52.4097 159.444 52.3337 159.803 52.3521C160.134 52.3349 160.465 52.4018 160.771 52.548C161.077 52.6943 161.351 52.9163 161.574 53.1982C162.015 53.8184 162.24 54.604 162.207 55.4038V56.0598H158.111C158.086 56.7223 158.275 57.3718 158.64 57.8852C158.824 58.098 159.044 58.2636 159.287 58.3709C159.531 58.4783 159.791 58.525 160.051 58.5079C160.706 58.5011 161.353 58.3393 161.951 58.0325V58.9547C161.661 59.103 161.359 59.2161 161.048 59.2922C160.712 59.3729 160.37 59.4127 160.026 59.411ZM159.782 53.1982C159.57 53.1863 159.357 53.2277 159.16 53.3197C158.963 53.4116 158.785 53.5518 158.64 53.7306C158.334 54.1489 158.156 54.6721 158.135 55.2184H161.247C161.278 54.6818 161.143 54.1498 160.866 53.7163C160.732 53.5408 160.564 53.4029 160.377 53.3132C160.189 53.2234 159.985 53.184 159.782 53.1982Z" fill="#231F20"/>
<path d="M166.428 53.2598H164.914V59.2873H164.012V53.2598H162.948V52.7845L164.012 52.4137V52.0334C164.012 50.3554 164.653 49.5141 165.928 49.5141C166.304 49.5248 166.678 49.5985 167.037 49.7327L166.805 50.5598C166.517 50.4445 166.216 50.3804 165.911 50.3697C165.767 50.3574 165.623 50.3866 165.491 50.4546C165.36 50.5227 165.245 50.6275 165.158 50.7595C164.97 51.1372 164.885 51.5711 164.914 52.0049V52.4517H166.428V53.2598ZM167.438 50.6026C167.43 50.5087 167.44 50.4141 167.466 50.3248C167.493 50.2355 167.535 50.1536 167.591 50.0845C167.641 50.029 167.7 49.9856 167.764 49.957C167.829 49.9284 167.898 49.9152 167.968 49.9181C168.107 49.9159 168.242 49.9754 168.344 50.0845C168.4 50.1537 168.443 50.2355 168.47 50.3247C168.497 50.4138 168.508 50.5085 168.501 50.6026C168.507 50.6975 168.497 50.7928 168.47 50.8827C168.443 50.9726 168.4 51.0552 168.344 51.1255C168.243 51.2376 168.108 51.2991 167.968 51.2966C167.898 51.299 167.829 51.285 167.764 51.2556C167.699 51.2261 167.64 51.1819 167.591 51.1255C167.536 51.055 167.494 50.9722 167.467 50.8823C167.441 50.7924 167.431 50.6972 167.438 50.6026ZM168.414 59.2873H167.512V52.4565H168.414V59.2873Z" fill="#231F20"/>
<path d="M174.393 59.2875V54.8668C174.425 54.4184 174.306 53.973 174.062 53.6213C173.925 53.4726 173.762 53.3589 173.583 53.2877C173.405 53.2164 173.216 53.1892 173.028 53.2078C172.776 53.1829 172.523 53.222 172.286 53.3223C172.05 53.4225 171.835 53.5814 171.658 53.7877C171.335 54.3484 171.189 55.0196 171.244 55.6891V59.2733H170.346V52.4567H171.079L171.223 53.4074H171.269C171.456 53.0675 171.725 52.7968 172.043 52.6279C172.39 52.4381 172.771 52.3422 173.156 52.3474C173.743 52.297 174.323 52.5119 174.774 52.9464C174.972 53.2044 175.122 53.5061 175.215 53.833C175.308 54.1599 175.343 54.5052 175.316 54.8478V59.3066L174.393 59.2875Z" fill="#231F20"/>
<path d="M179.656 59.411C179.275 59.4313 178.893 59.3598 178.537 59.201C178.181 59.0422 177.857 58.7996 177.587 58.4889C177.046 57.7852 176.768 56.8645 176.814 55.9267C176.769 54.983 177.02 54.0522 177.521 53.3028C177.755 52.9883 178.047 52.7392 178.377 52.5745C178.707 52.4097 179.065 52.3336 179.425 52.3521C179.755 52.3349 180.085 52.4019 180.391 52.5482C180.696 52.6944 180.97 52.9164 181.192 53.1982C181.645 53.8211 181.878 54.6166 181.845 55.4276V56.0836H177.749C177.725 56.7451 177.912 57.3939 178.274 57.9089C178.458 58.1221 178.68 58.2879 178.924 58.3953C179.168 58.5026 179.429 58.5491 179.69 58.5316C180.344 58.5249 180.991 58.363 181.589 58.0563V58.9785C181.299 59.1253 180.997 59.2384 180.687 59.316C180.347 59.389 180.002 59.4209 179.656 59.411ZM179.412 53.1982C179.2 53.1872 178.988 53.2291 178.791 53.321C178.594 53.4129 178.416 53.5526 178.27 53.7306C177.967 54.1506 177.791 54.6731 177.77 55.2184H180.877C180.91 54.6816 180.775 54.1489 180.496 53.7163C180.362 53.5403 180.195 53.402 180.007 53.3122C179.819 53.2223 179.615 53.1833 179.412 53.1982Z" fill="#231F20"/>
<path d="M187.449 58.3701H187.399C187.192 58.7132 186.912 58.9892 186.585 59.1716C186.258 59.3539 185.896 59.4364 185.533 59.4111C185.189 59.4322 184.846 59.3602 184.532 59.2008C184.217 59.0414 183.939 58.7992 183.721 58.4937C183.248 57.7382 183.018 56.8173 183.071 55.8887C183.02 54.9545 183.25 54.0285 183.721 53.2648C183.936 52.9532 184.212 52.7046 184.527 52.5394C184.842 52.3741 185.187 52.2969 185.533 52.3141C185.892 52.2926 186.249 52.3739 186.573 52.5507C186.898 52.7274 187.179 52.9941 187.391 53.3266H187.449L187.412 52.8513L187.387 52.3759V49.5951H188.276V59.297H187.544L187.449 58.3701ZM185.649 58.546C185.895 58.5707 186.143 58.5319 186.374 58.4324C186.605 58.3329 186.814 58.1751 186.985 57.9708C187.302 57.421 187.448 56.7644 187.399 56.1074V55.8887C187.455 55.1651 187.31 54.4398 186.985 53.8162C186.82 53.5988 186.611 53.4294 186.378 53.3221C186.144 53.2147 185.891 53.1722 185.641 53.1983C185.402 53.1848 185.165 53.2431 184.952 53.3673C184.74 53.4915 184.559 53.6774 184.428 53.9065C184.12 54.5095 183.976 55.205 184.014 55.903C183.973 56.5952 184.118 57.2853 184.428 57.8805C184.566 58.0954 184.747 58.2685 184.956 58.3845C185.165 58.5005 185.396 58.5559 185.628 58.546H185.649Z" fill="#231F20"/>
<path d="M71.3129 40.4778L61.6302 29.9535C61.5261 29.8464 61.3929 29.7841 61.2533 29.7772C61.1138 29.7703 60.9764 29.8191 60.8647 29.9154L58.3819 32.1353C58.316 32.196 58.2626 32.2726 58.2254 32.3597C58.1882 32.4468 58.1682 32.5422 58.1667 32.6392V40.0167C58.1678 40.1034 58.154 40.1896 58.1261 40.2703C58.0982 40.3509 58.0568 40.4244 58.0041 40.4867C57.9515 40.5489 57.8887 40.5986 57.8193 40.633C57.7499 40.6674 57.6754 40.6857 57.5998 40.6869H55.5805C55.504 40.6887 55.4279 40.6728 55.3568 40.6401C55.2857 40.6075 55.2211 40.5587 55.1667 40.4968C55.0593 40.3691 54.9986 40.199 54.9971 40.0214V18.217C54.9986 18.0395 55.0593 17.8694 55.1667 17.7417C55.2211 17.6797 55.2857 17.631 55.3568 17.5983C55.4279 17.5657 55.504 17.5498 55.5805 17.5515H57.5833C57.6588 17.5503 57.7338 17.5661 57.804 17.5982C57.8742 17.6302 57.9382 17.6779 57.9924 17.7383C58.0466 17.7988 58.0899 17.8709 58.1198 17.9506C58.1497 18.0303 58.1656 18.116 58.1667 18.2028V27.4056C58.1655 27.4939 58.1799 27.5816 58.209 27.6633C58.2382 27.745 58.2815 27.8191 58.3364 27.8809C58.3908 27.9431 58.4554 27.9923 58.5264 28.0257C58.5974 28.0592 58.6734 28.0762 58.7502 28.0758C58.8808 28.072 59.008 28.0276 59.1184 27.9475L70.986 17.3424C71.0803 17.2629 71.1927 17.2165 71.3095 17.2089C71.4263 17.2013 71.5425 17.2328 71.644 17.2996L72.7695 18.141C72.8916 18.2424 72.9777 18.3911 73.0119 18.5597C73.0461 18.7283 73.0262 18.9054 72.9557 19.0584C72.9184 19.1012 72.8812 19.1868 72.8067 19.2248L63.8481 27.1869C63.7306 27.2954 63.6539 27.4517 63.6339 27.6233C63.6139 27.795 63.652 27.9689 63.7405 28.1091C63.7405 28.1519 63.7778 28.1519 63.815 28.1947L74.1888 39.5175C74.244 39.5748 74.2887 39.644 74.3205 39.7212C74.3523 39.7984 74.3704 39.882 74.3739 39.9673C74.3773 40.0526 74.3661 40.1379 74.3407 40.2181C74.3153 40.2984 74.2763 40.3721 74.226 40.435C74.1741 40.5021 74.1104 40.5559 74.0391 40.5928C73.9677 40.6296 73.8904 40.6488 73.8122 40.6489H71.6605C71.5259 40.6339 71.398 40.5745 71.2922 40.4778H71.3129ZM93.8191 17.9223L103.725 39.5984C103.76 39.6726 103.781 39.7539 103.788 39.8377C103.796 39.9214 103.788 40.006 103.767 40.0864C103.745 40.1669 103.71 40.2416 103.663 40.3063C103.616 40.3711 103.559 40.4245 103.494 40.4635H103.469C103.394 40.5063 103.361 40.5063 103.287 40.5491L101.392 40.801C101.277 40.8164 101.161 40.7926 101.058 40.7326C100.955 40.6725 100.869 40.5789 100.812 40.4635L98.1184 34.4265C98.0728 34.3185 97.9998 34.2288 97.9089 34.1694C97.818 34.11 97.7136 34.0837 97.6095 34.0938H86.8509C86.7431 34.0912 86.6372 34.1255 86.5465 34.1924C86.4559 34.2593 86.3846 34.3557 86.3419 34.4693L83.8302 40.2543C83.7803 40.3616 83.7073 40.4524 83.6182 40.5182C83.5291 40.5839 83.4269 40.6223 83.3212 40.6299H81.5171C81.4415 40.6311 81.3665 40.6153 81.2963 40.5832C81.2261 40.5512 81.1621 40.5036 81.1079 40.4431C81.0537 40.3826 81.0105 40.3105 80.9806 40.2308C80.9506 40.1511 80.9347 40.0654 80.9336 39.9786C80.9415 39.8758 80.9668 39.7757 81.0081 39.6839L90.5253 17.9271C90.5744 17.8186 90.6471 17.7266 90.7363 17.66C90.8254 17.5933 90.9281 17.5543 91.0343 17.5468H93.364C93.462 17.5686 93.5549 17.6136 93.6369 17.6791C93.7189 17.7446 93.788 17.8291 93.8398 17.9271L93.8191 17.9223ZM91.5971 22.2433L87.7736 30.9612C87.739 31.0354 87.7176 31.1167 87.7105 31.2005C87.7034 31.2843 87.7109 31.3688 87.7324 31.4493C87.754 31.5297 87.7892 31.6045 87.836 31.6692C87.8829 31.7339 87.9404 31.7873 88.0053 31.8264H88.0302C88.1084 31.8742 88.1943 31.9033 88.2826 31.9119H96.0784C96.1553 31.9134 96.2316 31.8968 96.3028 31.8633C96.3739 31.8298 96.4384 31.78 96.4922 31.717C96.5462 31.6546 96.5886 31.5803 96.617 31.4987C96.6455 31.417 96.6593 31.3296 96.6578 31.2417C96.6583 31.1409 96.6339 31.042 96.5874 30.9565L92.6191 22.2338C92.5865 22.157 92.541 22.0885 92.4852 22.032C92.4294 21.9756 92.3644 21.9325 92.294 21.9051C92.2236 21.8777 92.1492 21.8666 92.075 21.8724C92.0008 21.8782 91.9284 21.9009 91.8619 21.939H91.8371C91.7276 22.0053 91.6382 22.108 91.5805 22.2338L91.5971 22.2433Z" fill="white"/>
<path d="M111.261 39.9786V18.217C111.26 18.1284 111.274 18.0405 111.303 17.9583C111.332 17.8762 111.375 17.8015 111.429 17.7386C111.483 17.6757 111.548 17.626 111.619 17.5922C111.691 17.5585 111.767 17.5414 111.844 17.542H113.557C113.635 17.5444 113.712 17.5645 113.783 17.6013C113.854 17.638 113.918 17.6906 113.971 17.7559L127.08 33.1811L127.697 34.0225C127.743 34.0913 127.801 34.1485 127.867 34.1904C127.933 34.2324 128.006 34.2582 128.082 34.2662C128.157 34.2742 128.233 34.2643 128.305 34.2371C128.377 34.2099 128.443 34.166 128.499 34.108C128.566 34.0457 128.619 33.9653 128.652 33.8741C128.685 33.7829 128.698 33.6836 128.69 33.5852V18.217C128.689 18.1292 128.704 18.0422 128.733 17.9609C128.762 17.8796 128.804 17.8057 128.858 17.7434C128.912 17.6811 128.976 17.6316 129.046 17.5979C129.117 17.5642 129.193 17.5468 129.269 17.5468H131.313C131.389 17.5455 131.463 17.5614 131.533 17.5935C131.603 17.6256 131.667 17.6733 131.721 17.7339C131.775 17.7944 131.818 17.8666 131.847 17.9462C131.877 18.0259 131.892 18.1115 131.893 18.198V39.9786C131.894 40.0654 131.88 40.1516 131.852 40.2322C131.824 40.3129 131.783 40.3864 131.73 40.4487C131.677 40.5109 131.614 40.5606 131.545 40.595C131.476 40.6293 131.401 40.6476 131.326 40.6489H129.563C129.406 40.6438 129.258 40.5688 129.149 40.4397L115.49 24.0021C115.397 23.8643 115.261 23.7738 115.111 23.7498C114.961 23.7258 114.809 23.7703 114.687 23.8737C114.616 23.9404 114.56 24.0247 114.522 24.1202C114.484 24.2158 114.465 24.3201 114.468 24.4251V39.9786C114.468 40.0668 114.453 40.1542 114.424 40.2357C114.395 40.3173 114.352 40.3915 114.298 40.454C114.244 40.517 114.18 40.5668 114.109 40.6003C114.037 40.6338 113.961 40.6503 113.884 40.6489H111.881C111.802 40.654 111.722 40.6406 111.647 40.6093C111.573 40.5779 111.504 40.5295 111.446 40.4668C111.388 40.4041 111.342 40.3285 111.31 40.2446C111.278 40.1606 111.261 40.0702 111.261 39.9786Z" fill="white"/>
<path d="M141.96 39.9787V18.2171C141.961 18.0395 142.022 17.8694 142.13 17.7417C142.24 17.6171 142.389 17.5471 142.543 17.5468H144.546C144.623 17.5464 144.699 17.5635 144.77 17.5969C144.841 17.6303 144.906 17.6795 144.96 17.7417C145.067 17.8694 145.128 18.0395 145.13 18.2171V39.9787C145.129 40.1563 145.068 40.3266 144.96 40.454C144.906 40.5162 144.841 40.5654 144.77 40.5988C144.699 40.6322 144.623 40.6493 144.546 40.6489H142.543C142.467 40.6498 142.39 40.633 142.319 40.5995C142.248 40.5661 142.184 40.5166 142.13 40.454C142.022 40.3266 141.961 40.1563 141.96 39.9787ZM154.812 39.9787V18.2171C154.809 18.045 154.864 17.8782 154.966 17.7521C155.068 17.626 155.209 17.5507 155.359 17.5421H157.072C157.15 17.5439 157.226 17.5638 157.298 17.6005C157.369 17.6373 157.433 17.6902 157.485 17.756L170.594 33.1811L171.211 34.0225C171.258 34.0908 171.316 34.1474 171.382 34.1889C171.448 34.2305 171.521 34.256 171.596 34.264C171.671 34.272 171.747 34.2623 171.819 34.2355C171.891 34.2087 171.957 34.1653 172.014 34.1081C172.083 34.0472 172.138 33.9676 172.174 33.8764C172.21 33.7852 172.226 33.6852 172.221 33.5852V18.2171C172.22 18.1293 172.235 18.0422 172.264 17.9609C172.292 17.8796 172.335 17.8057 172.389 17.7434C172.443 17.6811 172.507 17.6317 172.577 17.5979C172.648 17.5642 172.724 17.5468 172.8 17.5468H174.844C174.919 17.5455 174.994 17.5614 175.064 17.5935C175.134 17.6256 175.198 17.6733 175.252 17.7339C175.306 17.7944 175.349 17.8666 175.378 17.9463C175.407 18.0259 175.423 18.1115 175.423 18.198V39.9787C175.426 40.1531 175.368 40.3215 175.262 40.447C175.157 40.5726 175.012 40.6452 174.861 40.6489H173.131C172.974 40.6448 172.826 40.5696 172.717 40.4397L159.037 24.0021C158.945 23.8633 158.809 23.7719 158.659 23.7479C158.508 23.7238 158.356 23.7691 158.234 23.8737C158.165 23.9401 158.109 24.0238 158.072 24.1185C158.035 24.2133 158.017 24.3165 158.019 24.4204V39.9787C158.018 40.1563 157.957 40.3266 157.85 40.454C157.796 40.517 157.731 40.5668 157.66 40.6003C157.589 40.6338 157.513 40.6503 157.436 40.6489H155.396C155.319 40.6493 155.243 40.6322 155.172 40.5988C155.101 40.5654 155.036 40.5162 154.982 40.454C154.874 40.3266 154.813 40.1563 154.812 39.9787ZM185.114 39.9787V18.2171C185.113 18.1292 185.127 18.0419 185.156 17.9604C185.184 17.8788 185.226 17.8045 185.28 17.7417C185.391 17.6179 185.539 17.5481 185.694 17.5468H187.697C187.848 17.5468 187.994 17.6149 188.102 17.7367C188.21 17.8584 188.273 18.024 188.276 18.198V39.9787C188.277 40.0654 188.263 40.1516 188.235 40.2322C188.207 40.3129 188.166 40.3864 188.113 40.4487C188.061 40.5109 187.998 40.5606 187.928 40.595C187.859 40.6293 187.784 40.6477 187.709 40.6489H185.69C185.535 40.6476 185.387 40.5778 185.276 40.454C185.223 40.3909 185.182 40.3164 185.154 40.2348C185.126 40.1532 185.113 40.0662 185.114 39.9787Z" fill="white"/>
<path d="M71.3129 40.435L61.6302 29.9154C61.5269 29.8069 61.3939 29.7432 61.2541 29.7353C61.1143 29.7275 60.9766 29.7761 60.8647 29.8727L58.3819 32.0926C58.316 32.1532 58.2626 32.2299 58.2254 32.3169C58.1882 32.404 58.1682 32.4994 58.1667 32.5964V39.9786C58.1678 40.0654 58.154 40.1516 58.1261 40.2322C58.0982 40.3129 58.0568 40.3864 58.0041 40.4487C57.9515 40.5109 57.8887 40.5606 57.8193 40.595C57.7499 40.6293 57.6754 40.6476 57.5998 40.6489H55.5805C55.4257 40.6486 55.2772 40.5786 55.1667 40.454C55.059 40.3266 54.9982 40.1563 54.9971 39.9786V18.217C54.9986 18.0395 55.0593 17.8694 55.1667 17.7417C55.2772 17.617 55.4257 17.5471 55.5805 17.5468H57.5833C57.7362 17.5455 57.8834 17.6138 57.9927 17.7367C58.102 17.8595 58.1645 18.0271 58.1667 18.2028V27.4056C58.1655 27.4939 58.1799 27.5816 58.209 27.6633C58.2382 27.745 58.2815 27.8191 58.3364 27.8809C58.3908 27.9431 58.4554 27.9923 58.5264 28.0257C58.5974 28.0592 58.6734 28.0762 58.7502 28.0758C58.8808 28.072 59.008 28.0276 59.1184 27.9475L70.986 17.3424C71.0803 17.2629 71.1927 17.2165 71.3095 17.2089C71.4263 17.2013 71.5425 17.2328 71.644 17.2996L72.7695 18.141C72.8916 18.2424 72.9777 18.3911 73.0119 18.5597C73.0461 18.7283 73.0262 18.9054 72.9557 19.0584C72.9184 19.1012 72.8812 19.1868 72.8067 19.2248L63.8481 27.1869C63.7306 27.2954 63.6539 27.4517 63.6339 27.6233C63.6139 27.795 63.652 27.9689 63.7405 28.1091L63.815 28.1947L74.1888 39.5175C74.244 39.5748 74.2887 39.644 74.3205 39.7212C74.3523 39.7984 74.3704 39.882 74.3739 39.9673C74.3773 40.0526 74.3661 40.1379 74.3407 40.2181C74.3153 40.2984 74.2763 40.3721 74.226 40.435C74.1741 40.5021 74.1104 40.5559 74.0391 40.5928C73.9677 40.6296 73.8904 40.6488 73.8122 40.6489H71.6605C71.5899 40.6428 71.521 40.6208 71.4578 40.5841C71.3946 40.5474 71.3383 40.4967 71.2922 40.435H71.3129ZM93.8191 17.9223L103.725 39.5984C103.76 39.6726 103.781 39.7539 103.788 39.8377C103.796 39.9214 103.788 40.006 103.767 40.0864C103.745 40.1669 103.71 40.2416 103.663 40.3063C103.616 40.3711 103.559 40.4245 103.494 40.4635H103.469C103.394 40.5063 103.361 40.5063 103.287 40.5491L101.392 40.801C101.277 40.8164 101.161 40.7926 101.058 40.7326C100.955 40.6725 100.869 40.5789 100.812 40.4635L98.1184 34.4693C98.0677 34.3662 97.9935 34.2809 97.9039 34.2223C97.8143 34.1637 97.7126 34.1341 97.6095 34.1366H86.8509C86.7431 34.134 86.6372 34.1683 86.5465 34.2352C86.4559 34.3021 86.3846 34.3985 86.3419 34.5121L83.8302 40.2543C83.7803 40.3616 83.7073 40.4524 83.6182 40.5181C83.5291 40.5839 83.4269 40.6223 83.3212 40.6299H81.5171C81.4415 40.6311 81.3665 40.6153 81.2963 40.5832C81.2261 40.5512 81.1621 40.5036 81.1079 40.4431C81.0537 40.3826 81.0105 40.3105 80.9806 40.2308C80.9506 40.1511 80.9347 40.0654 80.9336 39.9786C80.9415 39.8758 80.9668 39.7757 81.0081 39.6839L90.5253 17.9271C90.5744 17.8186 90.6471 17.7266 90.7363 17.66C90.8254 17.5933 90.9281 17.5543 91.0343 17.5468H93.364C93.4645 17.5601 93.5605 17.6018 93.6435 17.6682C93.7266 17.7345 93.794 17.8235 93.8398 17.9271L93.8191 17.9223ZM91.5971 22.2433L87.7736 30.9612C87.739 31.0354 87.7176 31.1167 87.7105 31.2005C87.7034 31.2843 87.7109 31.3688 87.7324 31.4493C87.754 31.5297 87.7892 31.6045 87.836 31.6692C87.8829 31.7339 87.9404 31.7873 88.0053 31.8264H88.0302C88.1084 31.8742 88.1943 31.9033 88.2826 31.9119H96.0784C96.1553 31.9134 96.2316 31.8968 96.3028 31.8633C96.3739 31.8298 96.4384 31.78 96.4922 31.717C96.5462 31.6546 96.5886 31.5803 96.617 31.4987C96.6455 31.417 96.6593 31.3296 96.6578 31.2417C96.6583 31.1409 96.6339 31.042 96.5874 30.9565L92.6191 22.2338C92.5865 22.157 92.541 22.0885 92.4852 22.032C92.4294 21.9756 92.3644 21.9325 92.294 21.9051C92.2236 21.8777 92.1492 21.8666 92.075 21.8724C92.0008 21.8782 91.9284 21.9009 91.8619 21.939H91.8371C91.7276 22.0053 91.6382 22.108 91.5805 22.2338L91.5971 22.2433Z" fill="black"/>
<path d="M111.261 39.9786V18.217C111.26 18.1284 111.274 18.0405 111.303 17.9583C111.332 17.8762 111.375 17.8015 111.429 17.7386C111.483 17.6757 111.548 17.626 111.619 17.5922C111.691 17.5585 111.767 17.5414 111.844 17.542H113.557C113.635 17.5444 113.712 17.5645 113.783 17.6013C113.854 17.638 113.918 17.6906 113.971 17.7559L127.08 33.1811L127.697 34.0225C127.743 34.0913 127.801 34.1485 127.867 34.1904C127.933 34.2324 128.006 34.2582 128.082 34.2662C128.157 34.2742 128.233 34.2643 128.305 34.2371C128.377 34.2099 128.443 34.166 128.499 34.108C128.566 34.0457 128.619 33.9653 128.652 33.8741C128.685 33.7829 128.698 33.6836 128.69 33.5852V18.217C128.689 18.1292 128.704 18.0422 128.733 17.9609C128.762 17.8796 128.804 17.8057 128.858 17.7434C128.912 17.6811 128.976 17.6316 129.046 17.5979C129.117 17.5642 129.193 17.5468 129.269 17.5468H131.313C131.389 17.5455 131.463 17.5614 131.533 17.5935C131.603 17.6256 131.667 17.6733 131.721 17.7339C131.775 17.7944 131.818 17.8666 131.847 17.9462C131.877 18.0259 131.892 18.1115 131.893 18.198V39.9786C131.894 40.0654 131.88 40.1516 131.852 40.2322C131.824 40.3129 131.783 40.3864 131.73 40.4487C131.677 40.5109 131.614 40.5606 131.545 40.595C131.476 40.6293 131.401 40.6476 131.326 40.6489H129.563C129.406 40.6438 129.258 40.5688 129.149 40.4397L115.49 24.0021C115.397 23.8643 115.261 23.7738 115.111 23.7498C114.961 23.7258 114.809 23.7703 114.687 23.8737C114.616 23.9404 114.56 24.0247 114.522 24.1202C114.484 24.2158 114.465 24.3201 114.468 24.4251V39.9786C114.468 40.0668 114.453 40.1542 114.424 40.2357C114.395 40.3173 114.352 40.3915 114.298 40.454C114.244 40.517 114.18 40.5668 114.109 40.6003C114.037 40.6338 113.961 40.6503 113.884 40.6489H111.881C111.802 40.654 111.722 40.6406 111.647 40.6093C111.573 40.5779 111.504 40.5295 111.446 40.4668C111.388 40.4041 111.342 40.3285 111.31 40.2446C111.278 40.1606 111.261 40.0702 111.261 39.9786Z" fill="black"/>
<path d="M141.96 39.9786V18.217C141.961 18.0395 142.022 17.8694 142.13 17.7417C142.24 17.617 142.389 17.5471 142.543 17.5468H144.546C144.623 17.5464 144.699 17.5634 144.77 17.5969C144.841 17.6303 144.906 17.6795 144.96 17.7417C145.067 17.8694 145.128 18.0395 145.13 18.217V39.9786C145.129 40.1563 145.068 40.3266 144.96 40.454C144.906 40.5161 144.841 40.5653 144.77 40.5988C144.699 40.6322 144.623 40.6493 144.546 40.6489H142.543C142.467 40.6498 142.39 40.633 142.319 40.5995C142.248 40.5661 142.184 40.5166 142.13 40.454C142.022 40.3266 141.961 40.1563 141.96 39.9786ZM154.812 39.9786V18.217C154.809 18.045 154.864 17.8782 154.966 17.7521C155.068 17.626 155.209 17.5507 155.359 17.542H157.072C157.15 17.5439 157.226 17.5638 157.298 17.6005C157.369 17.6373 157.433 17.6901 157.485 17.7559L170.594 33.1811L171.211 34.0225C171.258 34.0907 171.316 34.1474 171.382 34.1889C171.448 34.2304 171.521 34.256 171.596 34.264C171.671 34.272 171.747 34.2623 171.819 34.2355C171.891 34.2087 171.957 34.1653 172.014 34.108C172.083 34.0472 172.138 33.9676 172.174 33.8764C172.21 33.7852 172.226 33.6851 172.221 33.5852V18.217C172.22 18.1292 172.235 18.0422 172.264 17.9609C172.292 17.8796 172.335 17.8057 172.389 17.7434C172.443 17.6811 172.507 17.6316 172.577 17.5979C172.648 17.5642 172.724 17.5468 172.8 17.5468H174.844C174.919 17.5455 174.994 17.5614 175.064 17.5935C175.134 17.6256 175.198 17.6733 175.252 17.7339C175.306 17.7944 175.349 17.8666 175.378 17.9462C175.407 18.0259 175.423 18.1115 175.423 18.198V39.9786C175.426 40.1531 175.368 40.3214 175.262 40.447C175.157 40.5726 175.012 40.6451 174.861 40.6489H173.131C172.974 40.6448 172.826 40.5696 172.717 40.4397L159.037 24.0021C158.945 23.8633 158.809 23.7719 158.659 23.7479C158.508 23.7238 158.356 23.7691 158.234 23.8737C158.165 23.9401 158.109 24.0238 158.072 24.1185C158.035 24.2132 158.017 24.3165 158.019 24.4204V39.9786C158.018 40.1563 157.957 40.3266 157.85 40.454C157.796 40.517 157.731 40.5668 157.66 40.6003C157.589 40.6338 157.513 40.6503 157.436 40.6489H155.396C155.245 40.6367 155.102 40.5622 154.995 40.439C154.888 40.3159 154.823 40.1524 154.812 39.9786ZM185.11 39.9786V18.217C185.109 18.1284 185.124 18.0405 185.152 17.9583C185.181 17.8762 185.224 17.8015 185.278 17.7386C185.333 17.6757 185.398 17.626 185.469 17.5922C185.54 17.5585 185.617 17.5414 185.694 17.542H187.697C187.849 17.542 187.995 17.6108 188.103 17.7336C188.212 17.8563 188.274 18.0232 188.276 18.198V39.9786C188.277 40.0654 188.263 40.1516 188.235 40.2322C188.207 40.3129 188.166 40.3864 188.113 40.4487C188.061 40.5109 187.998 40.5606 187.928 40.595C187.859 40.6293 187.784 40.6476 187.709 40.6489H185.69C185.613 40.6495 185.537 40.6326 185.466 40.5991C185.395 40.5657 185.33 40.5163 185.276 40.454C185.222 40.3916 185.179 40.3175 185.149 40.2359C185.12 40.1543 185.106 40.0668 185.106 39.9786H185.11Z" fill="black"/>
<path d="M5.03588 30.8614H17.3793C17.7978 30.8633 18.2118 30.9598 18.5977 31.1455C18.9836 31.3311 19.334 31.6023 19.6287 31.9435C19.9234 32.2847 20.1567 32.6893 20.3153 33.1341C20.474 33.5789 20.5548 34.0552 20.5531 34.5359V48.7299C20.5542 49.2113 20.4726 49.6883 20.313 50.1335C20.1533 50.5787 19.9188 50.9833 19.6228 51.3242C19.3269 51.6651 18.9752 51.9355 18.5881 52.1201C18.201 52.3046 17.786 52.3996 17.3669 52.3996H17.2511C16.8318 52.4002 16.4165 52.3056 16.0292 52.1213C15.6418 51.937 15.29 51.6666 14.9939 51.3256C14.6978 50.9846 14.4633 50.5797 14.3039 50.1342C14.1444 49.6888 14.0632 49.2115 14.0648 48.7299V38.2721H5.03588C4.20367 38.2378 3.41551 37.8339 2.83732 37.1454C2.25914 36.457 1.93604 35.5377 1.93604 34.581C1.93604 33.6244 2.25914 32.7051 2.83732 32.0166C3.41551 31.3281 4.20367 30.9242 5.03588 30.8899V30.8614Z" fill="#0088CE"/>
<path d="M39.5214 27.2345H27.1904C26.7708 27.2357 26.3551 27.1416 25.9672 26.9576C25.5794 26.7736 25.2271 26.5032 24.9305 26.1622C24.634 25.8211 24.3992 25.416 24.2395 24.9702C24.0798 24.5245 23.9984 24.0468 24 23.5648V9.37077C23.9978 8.40084 24.3308 7.46957 24.9259 6.7815C25.521 6.09343 26.3295 5.70483 27.1738 5.70105H27.3104C27.7296 5.70042 28.1449 5.79498 28.5322 5.9793C28.9196 6.16361 29.2714 6.43405 29.5675 6.77506C29.8636 7.11608 30.0981 7.52095 30.2575 7.96641C30.417 8.41186 30.4982 8.88913 30.4966 9.37077V19.8998H39.5214C40.3482 19.934 41.1312 20.3354 41.7056 21.0194C42.28 21.7034 42.6009 22.6167 42.6009 23.5671C42.6009 24.5175 42.28 25.4309 41.7056 26.1149C41.1312 26.7989 40.3482 27.2003 39.5214 27.2345Z" fill="#00A8E4"/>
<path d="M2.98769 12.779L36.4139 51.1732C37.0867 51.9459 37.9991 52.38 38.9504 52.38C39.9018 52.38 40.8142 51.9459 41.487 51.1732C42.1609 50.3963 42.5393 49.3442 42.5393 48.2474C42.5393 47.1506 42.1609 46.0985 41.487 45.3216L8.10631 6.81813C7.43562 6.0614 6.53706 5.63034 5.59708 5.61441C4.6571 5.59848 3.74786 5.99889 3.05803 6.73257C2.70217 7.10534 2.41462 7.55593 2.21222 8.05795C2.00982 8.55996 1.89664 9.10332 1.8793 9.65621C1.86196 10.2091 1.94081 10.7604 2.11124 11.2778C2.28166 11.7953 2.54024 12.2685 2.87183 12.6697L2.98769 12.779Z" fill="#BDDA57"/>
<path d="M17.2881 30.8614H17.3792C18.206 30.8956 18.989 31.2969 19.5633 31.981C20.1377 32.665 20.4587 33.5783 20.4587 34.5287C20.4587 35.4791 20.1377 36.3925 19.5633 37.0765C18.989 37.7605 18.206 38.1619 17.3792 38.1961H14.1019C14.0605 38.1961 14.0605 38.1961 14.0605 38.1533V34.5359C14.0671 33.5583 14.4103 32.6235 15.0151 31.9359C15.6199 31.2482 16.4372 30.8636 17.2881 30.8661V30.8614Z" fill="#00A8E4"/>
<path d="M27.3102 27.2345H27.2275C26.4007 27.2003 25.6177 26.7989 25.0433 26.1149C24.4689 25.4309 24.1479 24.5175 24.1479 23.5671C24.1479 22.6167 24.4689 21.7034 25.0433 21.0194C25.6177 20.3353 26.4007 19.934 27.2275 19.8998H30.5378V23.5647C30.5324 24.5427 30.1895 25.4782 29.5844 26.1661C28.9794 26.8541 28.1615 27.2383 27.3102 27.2345Z" fill="#68CEF2"/>
</svg>
